<svg width="48" height="48" viewBox="0 0 48 48" fill="none" xmlns="http://www.w3.org/2000/svg">
    <rect width="48" height="48" fill="#B9342B"/>
    <g clip-path="url(#clip0)">
        <path d="M32.1858 21.5H30.3633V23.3142H28.5492V25.1367H30.3633V26.9508H32.1858V25.1367H34V23.3142H32.1858V21.5Z" fill="white"/>
        <path d="M20.25 30.25C23.8567 30.25 26.2525 27.7183 26.2525 24.145C26.2525 23.7358 26.21 23.42 26.1508 23.105H20.2508V25.2533H23.7983C23.6533 26.1658 22.7242 27.9475 20.2508 27.9475C18.12 27.9475 16.38 26.1825 16.38 24C16.38 21.8175 18.1192 20.0517 20.2508 20.0517C21.47 20.0517 22.28 20.5717 22.7408 21.015L24.4375 19.3867C23.345 18.3642 21.9383 17.75 20.25 17.75C16.7967 17.75 14 20.5467 14 24C14 27.4533 16.7967 30.25 20.25 30.25Z" fill="white"/>
    </g>
    <defs>
        <clipPath id="clip0">
            <rect width="20" height="20" fill="white" transform="translate(14 14)"/>
        </clipPath>
    </defs>
</svg>
