<svg width="48" height="48" viewBox="0 0 48 48" fill="none" xmlns="http://www.w3.org/2000/svg">
    <rect width="48" height="48" fill="#466D8D"/>
    <g clip-path="url(#clip0)">
        <path d="M24.0033 18.865C21.1675 18.865 18.8717 21.1633 18.8717 23.9967C18.8717 26.8325 21.17 29.1283 24.0033 29.1283C26.8392 29.1283 29.135 26.83 29.135 23.9967C29.135 21.1608 26.8367 18.865 24.0033 18.865ZM24.0033 27.3275C22.1625 27.3275 20.6725 25.8367 20.6725 23.9967C20.6725 22.1567 22.1633 20.6658 24.0033 20.6658C25.8433 20.6658 27.3342 22.1567 27.3342 23.9967C27.335 25.8367 25.8442 27.3275 24.0033 27.3275Z" fill="white"/>
        <path d="M28.1233 14.0633C26.2833 13.9775 21.7258 13.9816 19.8841 14.0633C18.2658 14.1391 16.8383 14.53 15.6875 15.6808C13.7641 17.6041 14.01 20.1958 14.01 23.9966C14.01 27.8866 13.7933 30.4183 15.6875 32.3125C17.6183 34.2425 20.2475 33.99 24.0033 33.99C27.8566 33.99 29.1866 33.9925 30.5491 33.465C32.4016 32.7458 33.8 31.09 33.9366 28.1158C34.0233 26.275 34.0183 21.7183 33.9366 19.8766C33.7716 16.3658 31.8875 14.2366 28.1233 14.0633ZM31.0358 31.04C29.775 32.3008 28.0258 32.1883 23.9791 32.1883C19.8125 32.1883 18.1416 32.25 16.9225 31.0275C15.5183 29.63 15.7725 27.3858 15.7725 23.9833C15.7725 19.3791 15.3 16.0633 19.9208 15.8266C20.9825 15.7891 21.295 15.7766 23.9675 15.7766L24.005 15.8016C28.4458 15.8016 31.93 15.3366 32.1391 19.9566C32.1866 21.0108 32.1975 21.3275 32.1975 23.9958C32.1966 28.1141 32.275 29.795 31.0358 31.04Z" fill="white"/>
        <path d="M29.3383 19.8617C30.0006 19.8617 30.5375 19.3248 30.5375 18.6625C30.5375 18.0003 30.0006 17.4634 29.3383 17.4634C28.676 17.4634 28.1392 18.0003 28.1392 18.6625C28.1392 19.3248 28.676 19.8617 29.3383 19.8617Z" fill="white"/>
    </g>
    <defs>
        <clipPath id="clip0">
            <rect width="20" height="20" fill="white" transform="translate(14 14)"/>
        </clipPath>
    </defs>
</svg>
