<svg width="48" height="48" viewBox="0 0 48 48" fill="none" xmlns="http://www.w3.org/2000/svg">
    <rect width="48" height="48" fill="#C26C2E"/>
    <g clip-path="url(#clip0)">
        <path d="M17.9342 24.7341C17.4233 25.7382 18.0033 26.2182 19.3267 27.0382C20.4517 27.7332 22.0058 27.9874 23.0042 28.0891C22.595 28.4824 24.47 26.6791 19.07 31.8732C17.925 32.9707 19.7683 34.7316 20.9125 33.6574L24.01 30.6699C25.1958 31.8107 26.3325 32.9041 27.1075 33.6616C28.2525 34.7399 30.095 32.9941 28.9625 31.8774C28.8775 31.7966 24.765 27.8516 25.0158 28.0932C26.0267 27.9916 27.5575 27.7224 28.6692 27.0424L28.6683 27.0416C29.9916 26.2174 30.5716 25.7382 30.0683 24.7341C29.7641 24.1641 28.9441 23.6874 27.8525 24.5116C27.8525 24.5116 26.3783 25.6407 24.0008 25.6407C21.6225 25.6407 20.1492 24.5116 20.1492 24.5116C19.0583 23.6832 18.235 24.1641 17.9342 24.7341Z" fill="white"/>
        <path d="M23.9992 24.1183C26.8975 24.1183 29.2642 21.8533 29.2642 19.065C29.2642 16.265 26.8975 14 23.9992 14C21.1 14 18.7333 16.265 18.7333 19.065C18.7333 21.8533 21.1 24.1183 23.9992 24.1183ZM23.9992 16.5658C25.4233 16.5658 26.585 17.6833 26.585 19.065C26.585 20.435 25.4233 21.5525 23.9992 21.5525C22.575 21.5525 21.4133 20.435 21.4133 19.065C21.4125 17.6825 22.5742 16.5658 23.9992 16.5658Z" fill="white"/>
    </g>
    <defs>
        <clipPath id="clip0">
            <rect width="20" height="20" fill="white" transform="translate(14 14)"/>
        </clipPath>
    </defs>
</svg>
