<svg width="48" height="48" viewBox="0 0 48 48" fill="none" xmlns="http://www.w3.org/2000/svg">
    <rect width="48" height="48" fill="#4CACDB"/>
    <g clip-path="url(#clip0)">
        <path d="M31.945 20.0525C32.7583 19.475 33.4425 18.7542 34 17.9242V17.9233C33.2558 18.2492 32.4642 18.4658 31.6375 18.5708C32.4875 18.0633 33.1367 17.2658 33.4417 16.305C32.6492 16.7775 31.7742 17.1108 30.8417 17.2975C30.0892 16.4958 29.0167 16 27.8467 16C25.5767 16 23.7492 17.8425 23.7492 20.1008C23.7492 20.4258 23.7767 20.7383 23.8442 21.0358C20.4358 20.8692 17.4192 19.2358 15.3925 16.7467C15.0392 17.3608 14.8308 18.0633 14.8308 18.8192C14.8308 20.2392 15.5617 21.4975 16.6525 22.2267C15.9933 22.2142 15.3475 22.0225 14.8 21.7217V21.7667C14.8 23.7592 16.2208 25.4142 18.085 25.7958C17.7508 25.8875 17.3875 25.9308 17.01 25.9308C16.7475 25.9308 16.4825 25.9158 16.2342 25.8608C16.765 27.4842 18.2733 28.6783 20.065 28.7175C18.67 29.8083 16.8983 30.4658 14.9808 30.4658C14.645 30.4658 14.3225 30.4508 14 30.41C15.8167 31.5808 17.9683 32.25 20.29 32.25C27.5258 32.25 32.2417 26.2133 31.945 20.0525Z" fill="white"/>
    </g>
    <defs>
        <clipPath id="clip0">
            <rect width="20" height="20" fill="white" transform="translate(15 15)"/>
        </clipPath>
    </defs>
</svg>
