<svg width="48" height="48" viewBox="0 0 48 48" fill="none" xmlns="http://www.w3.org/2000/svg">
    <rect width="48" height="48" fill="#436284"/>
    <g clip-path="url(#clip0)">
        <path d="M30.5958 24.8567C30.2725 24.4484 30.365 24.2667 30.5958 23.9017C30.6 23.8976 33.2692 20.2092 33.5442 18.9584L33.5458 18.9576C33.6825 18.5017 33.5458 18.1667 32.885 18.1667H30.6983C30.1417 18.1667 29.885 18.4542 29.7475 18.7759C29.7475 18.7759 28.6342 21.4409 27.0592 23.1684C26.5508 23.6676 26.3158 23.8276 26.0383 23.8276C25.9017 23.8276 25.6892 23.6676 25.6892 23.2117V18.9576C25.6892 18.4109 25.5333 18.1667 25.0725 18.1667H21.6342C21.285 18.1667 21.0775 18.4217 21.0775 18.6592C21.0775 19.1776 21.865 19.2967 21.9467 20.7551V23.9192C21.9467 24.6126 21.8208 24.7401 21.5417 24.7401C20.7983 24.7401 18.9942 22.0642 17.925 19.0017C17.7092 18.4076 17.4983 18.1676 16.9375 18.1676H14.75C14.1258 18.1676 14 18.4551 14 18.7767C14 19.3451 14.7433 22.1709 17.4567 25.9042C19.265 28.4526 21.8117 29.8334 24.1283 29.8334C25.5208 29.8334 25.6908 29.5267 25.6908 28.9992C25.6908 26.5642 25.565 26.3342 26.2625 26.3342C26.5858 26.3342 27.1425 26.4942 28.4425 27.7234C29.9283 29.1809 30.1725 29.8334 31.0042 29.8334H33.1908C33.8142 29.8334 34.13 29.5267 33.9483 28.9217C33.5325 27.6492 30.7225 25.0317 30.5958 24.8567Z" fill="white"/>
    </g>
    <defs>
        <clipPath id="clip0">
            <rect width="20" height="20" fill="white" transform="translate(14 14)"/>
        </clipPath>
    </defs>
</svg>
